<svg width="212" height="222" viewBox="0 0 212 222" fill="none" xmlns="http://www.w3.org/2000/svg">
<g clip-path="url(#clip0)">
<path d="M106.113 202.723C164.453 202.723 211.746 157.342 211.746 101.362C211.746 45.3811 164.453 0 106.113 0C47.7727 0 0.478874 45.3811 0.478874 101.362C0.478874 157.342 47.7727 202.723 106.113 202.723Z" fill="#FF9F1C"/>
<path d="M117.463 221.863L128.724 182.578C128.724 182.578 159.12 154.934 157.348 132.824C157.289 132.092 157.348 132.036 157.348 132.036L156.958 126.486C156.933 126.126 156.796 125.781 156.565 125.495C156.334 125.21 156.02 124.998 155.662 124.885C155.305 124.772 154.92 124.764 154.558 124.863C154.196 124.961 153.872 125.161 153.629 125.436L147.611 132.261L145.444 135.059C145.444 135.059 140.103 141.266 130.249 138.452L127.082 138.002C127.082 138.002 119.164 141.66 108.488 135.807C108.488 135.807 112.242 140.084 103.092 131.304C93.9419 122.524 81.6243 108.791 81.6243 108.791C79.7115 106.827 81.0516 101.348 83.8475 101.184C90.1932 100.814 97.427 99.1841 99.4612 97.0038C100.237 96.1674 100.822 95.1849 101.18 94.1191C101.571 92.9642 101.69 91.7398 101.525 90.5354C101.361 89.331 100.918 88.1771 100.23 87.1578C99.5415 86.1386 98.6244 85.2797 97.5458 84.644C96.4671 84.0083 95.2541 83.6119 93.9953 83.4836C86.6196 82.7401 74.6227 82.1659 71.1919 83.4304C70.867 83.5518 70.5486 83.6888 70.238 83.8409C68.1492 84.8737 66.3709 86.4026 65.0727 88.2819C63.7745 90.1613 62.9996 92.3284 62.8219 94.5767C61.8575 105.89 60.5902 130.694 66.4101 143.911L73.6472 160.346L51.241 221.357L117.463 221.863Z" fill="#011627"/>
<path d="M149.659 129.398C149.659 129.398 140.275 131.875 139.993 123.094C139.993 123.094 139.335 81.8794 107.222 96.7016C75.1082 111.524 90.9771 132.628 90.9771 132.628C90.9771 132.628 95.3874 132.723 94.5223 135.915C93.6571 139.107 92.2961 143.037 92.2961 143.037C92.2961 143.037 92.1977 146.673 96.6889 145.379C96.6889 145.379 98.0148 145.943 96.1754 148.364C96.1754 148.364 96.9879 151.913 99.3056 151C99.3056 151 97.6913 151.5 98.5213 152.803C99.3513 154.105 99.6221 155.288 101.029 154.462C102.436 153.636 103.617 154.732 103.617 154.732C103.617 154.732 103.836 162.656 111.925 157.908C120.014 153.161 119.264 150.469 123.179 151.303C123.56 151.383 123.946 151.442 124.334 151.482C126.742 151.718 129.172 151.342 131.381 150.391C133.59 149.441 135.499 147.951 136.918 146.069L149.659 129.398Z" fill="#FF9F1C"/>
<path d="M147.579 108.52C147.29 108.52 147.001 108.534 146.714 108.563C145.461 108.683 144.253 109.076 143.182 109.711C142.111 110.345 141.204 111.206 140.531 112.227L131.297 126.15C130.67 127.094 130.304 128.176 130.233 129.294C130.162 130.411 130.389 131.528 130.892 132.538C131.395 133.548 132.158 134.419 133.109 135.068C134.059 135.717 135.166 136.123 136.326 136.248L136.506 136.267C137.588 136.373 138.681 136.23 139.694 135.851C140.707 135.471 141.611 134.866 142.332 134.086L153.73 121.782C155.117 120.308 155.876 118.388 155.855 116.402C155.834 114.416 155.035 112.51 153.617 111.063C153.562 111.007 153.507 110.952 153.451 110.897C152.689 110.143 151.776 109.544 150.767 109.136C149.758 108.728 148.674 108.518 147.579 108.52Z" fill="#011627"/>
<path d="M134.001 93.7655C132.542 93.7656 131.107 94.1201 129.829 94.7959C128.552 95.4718 127.473 96.447 126.694 97.6306L113.079 118.362C112.346 119.465 111.9 120.721 111.777 122.024C111.655 123.327 111.86 124.638 112.375 125.85C112.869 127.054 113.658 128.126 114.674 128.978C115.69 129.829 116.904 130.434 118.214 130.742C118.305 130.764 118.397 130.785 118.491 130.805C120.12 131.157 121.82 131.043 123.382 130.477C124.944 129.911 126.298 128.918 127.278 127.621C131.24 122.416 138.421 112.77 142.001 106.64C142.84 105.233 143.222 103.617 143.097 102C142.971 100.383 142.345 98.8388 141.299 97.5657C140.877 97.0547 140.423 96.5681 139.941 96.1082C138.362 94.6039 136.226 93.7615 134.001 93.7655Z" fill="#011627"/>
<path d="M116.991 81.9958C115.017 82.0117 113.1 82.6335 111.521 83.7702C109.942 84.9069 108.784 86.4988 108.216 88.3129C105.589 96.7176 100.066 105.604 97.0076 110.153C96.5003 110.91 96.1582 111.758 96.0019 112.646C95.8456 113.534 95.8783 114.443 96.0981 115.318C96.3041 116.158 96.6877 116.948 97.2251 117.64C97.7625 118.331 98.4423 118.91 99.2222 119.339C99.3309 119.399 99.4406 119.456 99.5515 119.511C103.704 121.582 108.917 120.127 111.42 116.198L124.69 95.3682C125.45 94.1856 125.908 92.8473 126.026 91.4626C126.143 90.0778 125.918 88.686 125.368 87.4008C124.854 86.1542 124.04 85.0419 122.992 84.1549C121.944 83.268 120.693 82.6315 119.34 82.2975C119.161 82.2533 118.982 82.2131 118.803 82.177C118.207 82.0565 117.6 81.9958 116.991 81.9958Z" fill="#011627"/>
<path d="M87.0305 79.5991C88.2397 79.7126 89.6053 79.7925 91.045 79.8766C96.1704 80.1762 101.932 80.513 103.628 82.6015L103.963 81.7706C104.414 80.5223 104.551 79.1895 104.362 77.8808C104.174 76.5722 103.665 75.3249 102.879 74.2407C102.133 73.1835 101.138 72.3106 99.9734 71.6933C98.8092 71.076 97.5092 70.7319 96.1797 70.6891C96.0043 70.6831 95.8294 70.6814 95.6554 70.683C91.2062 70.7282 87.4621 74.1529 87.1315 78.4797C87.1039 78.8407 87.0707 79.2092 87.0305 79.5991Z" fill="#011627"/>
<path d="M97.453 102.838C97.3546 102.839 97.2583 102.866 97.1755 102.917C93.2519 105.248 86.8202 105.745 83.3356 105.835C83.1887 105.838 83.0459 105.882 82.924 105.961C82.802 106.039 82.706 106.15 82.6472 106.279C82.5872 106.403 82.566 106.541 82.586 106.676C82.6061 106.812 82.6666 106.938 82.7603 107.041C84.2766 108.739 87.8224 110.745 91.1314 111.163C93.8921 111.507 96.5752 106.538 97.9288 103.541C97.9756 103.444 97.9876 103.335 97.9631 103.23C97.9385 103.125 97.8787 103.031 97.7929 102.963C97.6987 102.884 97.5782 102.839 97.453 102.838Z" fill="#011627"/>
</g>
<defs>
<clipPath id="clip0">
<rect width="211.268" height="221.863" fill="white" transform="translate(0.478874)"/>
</clipPath>
</defs>
</svg>
